<?xml version="1.0" encoding="UTF-8" standalone="no"?>
<!-- Created with Inkscape (http://www.inkscape.org/) -->

<svg
   width="135.11484mm"
   height="16.798355mm"
   viewBox="0 0 135.11484 16.798355"
   version="1.1"
   id="svg5"
   xml:space="preserve"
   inkscape:export-filename="jawisoft_bcd_logo.png"
   inkscape:export-xdpi="685.12"
   inkscape:export-ydpi="685.12"
   inkscape:version="1.2.2 (732a01da63, 2022-12-09)"
   sodipodi:docname="jawisoftbcd.svg"
   xmlns:inkscape="http://www.inkscape.org/namespaces/inkscape"
   xmlns:sodipodi="http://sodipodi.sourceforge.net/DTD/sodipodi-0.dtd"
   xmlns:xlink="http://www.w3.org/1999/xlink"
   xmlns="http://www.w3.org/2000/svg"
   xmlns:svg="http://www.w3.org/2000/svg"
   xmlns:rdf="http://www.w3.org/1999/02/22-rdf-syntax-ns#"
   xmlns:cc="http://creativecommons.org/ns#"
   xmlns:dc="http://purl.org/dc/elements/1.1/"><title
     id="title5117">jawisoftbcd_logo</title><sodipodi:namedview
     id="namedview7"
     pagecolor="#505050"
     bordercolor="#ffffff"
     borderopacity="1"
     inkscape:showpageshadow="0"
     inkscape:pageopacity="0"
     inkscape:pagecheckerboard="1"
     inkscape:deskcolor="#505050"
     inkscape:document-units="mm"
     showgrid="false"
     inkscape:zoom="5.6568542"
     inkscape:cx="582.74438"
     inkscape:cy="385.19642"
     inkscape:window-width="1920"
     inkscape:window-height="1009"
     inkscape:window-x="-8"
     inkscape:window-y="-8"
     inkscape:window-maximized="1"
     inkscape:current-layer="layer1" /><defs
     id="defs2"><linearGradient
       inkscape:collect="always"
       id="linearGradient1250"><stop
         style="stop-color:#048087;stop-opacity:1;"
         offset="0"
         id="stop1246" /><stop
         style="stop-color:#3cbd67;stop-opacity:1;"
         offset="1"
         id="stop1248" /></linearGradient><linearGradient
       inkscape:collect="always"
       xlink:href="#linearGradient1250"
       id="linearGradient1252"
       x1="149.23958"
       y1="107.20914"
       x2="175.93333"
       y2="107.20914"
       gradientUnits="userSpaceOnUse"
       gradientTransform="matrix(0.90113251,0,0,1.0018493,8.4148949,-0.57243479)" /></defs><g
     inkscape:label="Layer 1"
     inkscape:groupmode="layer"
     id="layer1"
     transform="translate(-31.849252,-98.435796)"><path
       style="font-variation-settings:'wght' 500;fill:url(#linearGradient1252);stroke:#000000;stroke-width:0.385732;stroke-linejoin:round;stroke-opacity:0"
       d="m 144.19242,101.35388 h 21.46885 c 0.61492,0 1.10996,0.46545 1.10996,1.04362 v 8.87494 c 0,0.57817 -0.49504,1.04362 -1.10996,1.04362 h -21.46885 c -0.61492,0 -1.10996,-0.46545 -1.10996,-1.04362 v -8.87494 c 0,-0.57817 0.49504,-1.04362 1.10996,-1.04362 z"
       id="rect1221" /><g
       aria-label="BCD"
       transform="matrix(1.0900112,0,0,0.91742177,0,-0.37417779)"
       id="text4787"
       style="font-size:6.13911px;font-family:Calibri;-inkscape-font-specification:'Calibri, Normal ';letter-spacing:-0.339049px;fill:#2f4858;stroke:#000000;stroke-width:0.395504;stroke-linejoin:round;stroke-opacity:0"><path
         d="m 139.39856,117.9941 q 0,0.25083 -0.0658,0.46466 -0.0617,0.20971 -0.17682,0.3783 -0.11513,0.1686 -0.27961,0.29607 -0.16037,0.12747 -0.36598,0.21383 -0.20149,0.0864 -0.43587,0.13158 -0.23027,0.0411 -0.53045,0.0411 h -1.38987 q -0.0946,0 -0.18093,-0.0617 -0.0822,-0.0658 -0.0822,-0.22616 v -4.74529 q 0,-0.16036 0.0822,-0.22205 0.0863,-0.0658 0.18093,-0.0658 h 1.20894 q 0.47699,0 0.78128,0.0905 0.30429,0.0905 0.50578,0.26317 0.20561,0.1727 0.30841,0.42354 0.1028,0.25083 0.1028,0.56746 0,0.18915 -0.0452,0.36186 -0.0452,0.1727 -0.13569,0.32073 -0.0864,0.14392 -0.22205,0.25906 -0.13159,0.11514 -0.30429,0.18916 0.21793,0.0411 0.40709,0.15214 0.18915,0.10691 0.32896,0.27551 0.14392,0.16859 0.22616,0.39475 0.0822,0.22616 0.0822,0.49756 z m -1.06501,-2.38087 q 0,-0.19326 -0.0535,-0.34952 -0.0535,-0.15626 -0.16859,-0.26317 -0.11514,-0.11103 -0.30018,-0.16859 -0.18504,-0.0576 -0.48933,-0.0576 h -0.73194 v 1.72294 h 0.80595 q 0.27551,0 0.4441,-0.0699 0.1686,-0.074 0.27962,-0.19326 0.11103,-0.12336 0.16037,-0.28373 0.0535,-0.16448 0.0535,-0.33719 z m 0.32074,2.42199 q 0,-0.2385 -0.0781,-0.41943 -0.074,-0.18093 -0.22205,-0.30429 -0.14392,-0.12336 -0.36597,-0.18504 -0.21794,-0.0658 -0.55102,-0.0658 h -0.84707 v 1.87508 h 1.028 q 0.24261,0 0.42354,-0.0576 0.18093,-0.0576 0.31663,-0.16859 0.13981,-0.11514 0.21794,-0.28373 0.0781,-0.16859 0.0781,-0.39064 z"
         style="font-size:8.42144px;-inkscape-font-specification:'Calibri, Normal';fill:#ffffff;stroke-width:0.395505"
         id="path306" /><path
         d="m 143.68555,118.76716 q 0,0.0658 -0.004,0.11514 -0.004,0.0493 -0.0165,0.0863 -0.008,0.037 -0.0247,0.0658 -0.0164,0.0288 -0.0576,0.0699 -0.0411,0.0411 -0.17271,0.12747 -0.13158,0.0822 -0.32896,0.16448 -0.19326,0.0781 -0.44821,0.13159 -0.25083,0.0576 -0.55101,0.0576 -0.51812,0 -0.93755,-0.1727 -0.41531,-0.17271 -0.71138,-0.50989 -0.29195,-0.33719 -0.45232,-0.83063 -0.15626,-0.49756 -0.15626,-1.14315 0,-0.66204 0.1686,-1.18015 0.1727,-0.51812 0.4811,-0.87586 0.30841,-0.36186 0.73606,-0.55102 0.43176,-0.18915 0.95399,-0.18915 0.23027,0 0.44821,0.0452 0.21794,0.0411 0.40298,0.10692 0.18504,0.0658 0.32896,0.15214 0.14392,0.0863 0.19738,0.14392 0.0576,0.0535 0.074,0.0822 0.0164,0.0288 0.0247,0.0699 0.0123,0.037 0.0164,0.0905 0.008,0.0535 0.008,0.12747 0,0.0822 -0.008,0.13981 -0.008,0.0576 -0.0247,0.0987 -0.0164,0.037 -0.0411,0.0576 -0.0206,0.0165 -0.0534,0.0165 -0.0576,0 -0.16037,-0.0781 -0.1028,-0.0822 -0.26728,-0.17682 -0.16037,-0.0987 -0.39476,-0.17681 -0.23027,-0.0823 -0.55512,-0.0823 -0.35364,0 -0.64559,0.14393 -0.28785,0.1398 -0.49345,0.41531 -0.2056,0.27551 -0.32074,0.67437 -0.11102,0.39476 -0.11102,0.90465 0,0.50578 0.10691,0.89642 0.11103,0.38653 0.31252,0.6497 0.2056,0.25906 0.50167,0.39476 0.29606,0.13158 0.67026,0.13158 0.31662,0 0.55101,-0.0781 0.2385,-0.0781 0.40298,-0.17271 0.16859,-0.0987 0.2755,-0.17682 0.10692,-0.0781 0.1686,-0.0781 0.0288,0 0.0493,0.0123 0.0206,0.0123 0.0329,0.0493 0.0123,0.0329 0.0165,0.0946 0.008,0.0617 0.008,0.15626 z"
         style="font-size:8.42144px;-inkscape-font-specification:'Calibri, Normal';fill:#ffffff;stroke-width:0.395505"
         id="path308" /><path
         d="m 148.37552,116.78105 q 0,0.69082 -0.17682,1.20894 -0.17682,0.514 -0.51812,0.8553 -0.33718,0.33718 -0.83063,0.50578 -0.49344,0.16859 -1.17604,0.16859 h -1.1267 q -0.0946,0 -0.18093,-0.0617 -0.0822,-0.0658 -0.0822,-0.22616 v -4.74529 q 0,-0.16036 0.0822,-0.22205 0.0864,-0.0658 0.18093,-0.0658 h 1.20483 q 0.69082,0 1.16782,0.18093 0.47699,0.17682 0.79773,0.51401 0.32485,0.33307 0.48933,0.81007 0.1686,0.47699 0.1686,1.07735 z m -0.74428,0.0288 q 0,-0.43176 -0.10692,-0.80184 -0.10691,-0.3742 -0.33718,-0.64559 -0.22616,-0.2714 -0.57569,-0.42354 -0.34952,-0.15215 -0.90053,-0.15215 h -0.71961 v 4.14082 h 0.72783 q 0.50989,0 0.85942,-0.12747 0.34952,-0.12748 0.58391,-0.39065 0.23438,-0.26317 0.34952,-0.65792 0.11925,-0.39887 0.11925,-0.94166 z"
         style="font-size:8.42144px;-inkscape-font-specification:'Calibri, Normal';fill:#ffffff;stroke-width:0.395505"
         id="path310" /></g><g
       aria-label="Ja"
       id="text236"
       style="font-size:14.1111px;fill:#2f4858;stroke:#000000;stroke-width:0.499999;stroke-linejoin:round;stroke-opacity:0"
       transform="translate(0,-0.37417779)"><path
         d="m 34.850921,115.35833 q -0.762001,0 -1.397002,-0.35983 -0.613834,-0.381 -0.994835,-0.99484 -0.359834,-0.635 -0.359834,-1.397 v -1.48167 h 2.286004 v 1.41817 q 0,0.21167 0.148167,0.381 0.169334,0.14817 0.381001,0.14817 h 9.609682 q 0.211667,0 0.359833,-0.14817 0.148167,-0.16933 0.148167,-0.381 v -12.42485 h 2.307171 v 12.48835 q 0,0.762 -0.381001,1.397 -0.359834,0.61384 -0.994835,0.99484 -0.635001,0.35983 -1.375835,0.35983 z"
         style="font-size:21.1667px;font-family:Orbitron;-inkscape-font-specification:'Orbitron, @wght=500';font-variation-settings:'wght' 500"
         id="path313" /><path
         d="m 52.186463,115.35833 q -0.698501,0 -1.291169,-0.33867 -0.571501,-0.35983 -0.931335,-0.93133 -0.338667,-0.59267 -0.338667,-1.29117 v -4.44501 h 10.752684 v -2.70934 q 0,-0.33866 -0.254,-0.5715 -0.232834,-0.254 -0.571501,-0.254 h -9.927183 v -1.73567 h 9.927183 q 0.719668,0 1.291168,0.35984 0.592668,0.33866 0.931335,0.93133 0.359834,0.5715 0.359834,1.27 v 9.71552 z m 0,-1.73567 h 8.191513 v -3.53484 h -9.017014 v 2.70934 q 0,0.33867 0.232833,0.59267 0.254001,0.23283 0.592668,0.23283 z"
         style="font-size:21.1667px;font-family:Orbitron;-inkscape-font-specification:'Orbitron, Normal';stroke-width:0.5"
         id="path315" /></g><g
       aria-label="W"
       id="text497"
       style="font-size:21.1667px;font-family:Raleway;-inkscape-font-specification:'Raleway, @wght=555';font-variation-settings:'wght' 555;fill:#2f4858;stroke:#000000;stroke-width:0.499999;stroke-linejoin:round;stroke-opacity:0"
       transform="translate(0,-0.37417779)"><path
         d="m 69.773909,100.41464 h 2.032003 l 1.905003,5.14351 1.947336,-5.14351 h 2.032004 l -2.582338,6.60401 2.391837,5.84201 4.868341,-12.53069 h 2.349504 l -6.201843,15.02836 H 76.63192 l -2.899838,-6.87918 -2.899838,6.87918 h -1.883837 l -6.180676,-15.02836 h 2.328337 l 4.889508,12.53069 2.37067,-5.84201 z"
         style="stroke-width:0.5"
         id="path318" /></g><g
       aria-label="i"
       transform="matrix(1.0462969,0,0,0.95575167,0,-0.37417779)"
       id="text501"
       style="font-size:20.4324px;font-family:Orbitron;-inkscape-font-specification:'Orbitron, @wght=400';font-variation-settings:'wght' 400;fill:#2f4858;stroke:#000000;stroke-width:0.482651;stroke-linejoin:round;stroke-opacity:0"><path
         d="m 81.565613,120.70814 v 0 -11.85079 h 1.675457 v 11.85079 z m 0,-14.05749 v 0 -1.67546 h 1.675457 v 1.67546 z"
         style="stroke-width:0.482652"
         id="path321" /></g><g
       aria-label="Soft"
       transform="matrix(1,0,-0.26794919,1,0,-0.37417779)"
       id="text505"
       style="font-size:21.1667px;font-family:Orbitron;-inkscape-font-specification:'Orbitron, @wght=400';font-variation-settings:'wght' 400;stroke:#000000;stroke-width:0.499999;stroke-linejoin:round;stroke-opacity:0"><path
         d="m 121.16929,115.35833 q -0.6985,0 -1.29117,-0.33867 -0.5715,-0.33866 -0.91017,-0.91017 -0.33867,-0.59266 -0.33867,-1.29116 v -0.59267 h 1.71451 v 0.59267 q 0,0.33866 0.23283,0.59266 0.254,0.23284 0.59267,0.23284 h 10.16001 q 0.33867,0 0.5715,-0.23284 0.25401,-0.254 0.25401,-0.59266 v -3.40784 q 0,-0.33867 -0.25401,-0.5715 -0.23283,-0.23284 -0.5715,-0.23284 h -10.16001 q -0.6985,0 -1.29117,-0.33866 -0.5715,-0.35984 -0.91017,-0.93134 -0.33867,-0.5715 -0.33867,-1.27 v -3.40784 q 0,-0.6985 0.33867,-1.27 0.33867,-0.59267 0.91017,-0.93134 0.59267,-0.33866 1.29117,-0.33866 h 10.16001 q 0.6985,0 1.27001,0.33866 0.59266,0.33867 0.93133,0.93134 0.33867,0.5715 0.33867,1.27 v 0.59267 h -1.7145 v -0.59267 q 0,-0.33867 -0.25401,-0.5715 -0.23283,-0.254 -0.5715,-0.254 h -10.16001 q -0.33867,0 -0.59267,0.254 -0.23283,0.23283 -0.23283,0.5715 v 3.40784 q 0,0.33867 0.23283,0.5715 0.254,0.23283 0.59267,0.23283 h 10.16001 q 0.6985,0 1.27001,0.35984 0.59266,0.33866 0.93133,0.91016 0.33867,0.57151 0.33867,1.27001 v 3.40784 q 0,0.6985 -0.33867,1.29116 -0.33867,0.57151 -0.93133,0.91017 -0.57151,0.33867 -1.27001,0.33867 z"
         style="-inkscape-font-specification:'Orbitron, Normal';fill:#008080;stroke-width:0.5"
         id="path324" /><path
         d="m 138.58949,115.35833 q -0.6985,0 -1.29117,-0.33867 -0.5715,-0.35983 -0.93133,-0.93133 -0.33867,-0.59267 -0.33867,-1.29117 v -7.15435 q 0,-0.6985 0.33867,-1.27 0.35983,-0.59267 0.93133,-0.93133 0.59267,-0.35984 1.29117,-0.35984 h 7.36601 q 0.71967,0 1.29117,0.35984 0.59267,0.33866 0.93134,0.93133 0.35983,0.5715 0.35983,1.27 v 7.15435 q 0,0.6985 -0.35983,1.29117 -0.33867,0.5715 -0.93134,0.93133 -0.5715,0.33867 -1.29117,0.33867 z m 0,-1.73567 h 7.36601 q 0.33867,0 0.57151,-0.23283 0.254,-0.254 0.254,-0.59267 v -7.15435 q 0,-0.33866 -0.254,-0.5715 -0.23284,-0.254 -0.57151,-0.254 h -7.36601 q -0.33866,0 -0.59267,0.254 -0.23283,0.23284 -0.23283,0.5715 v 7.15435 q 0,0.33867 0.23283,0.59267 0.25401,0.23283 0.59267,0.23283 z"
         style="-inkscape-font-specification:'Orbitron, Normal';fill:#008080;stroke-width:0.5"
         id="path326" /><path
         d="m 150.718,115.35833 v 0 -13.73719 q 0,-0.71967 0.33867,-1.29117 0.33866,-0.592665 0.91017,-0.931332 0.59266,-0.338668 1.31233,-0.338668 h 4.48734 v 1.73567 h -4.48734 q -0.33867,0 -0.59267,0.254 -0.23283,0.23283 -0.23283,0.5715 v 1.4605 h 5.31284 v 1.73567 h -5.31284 v 10.54102 z"
         style="-inkscape-font-specification:'Orbitron, Normal';fill:#008080;stroke-width:0.5"
         id="path328" /><path
         d="m 161.99982,115.35833 q -0.71966,0 -1.31233,-0.33867 -0.5715,-0.35983 -0.91017,-0.93133 -0.33867,-0.59267 -0.33867,-1.29117 V 99.05997 h 1.73567 v 4.02167 h 5.31284 v 1.73567 h -5.31284 v 7.97985 q 0,0.33867 0.23284,0.59267 0.254,0.23283 0.59266,0.23283 h 4.48734 v 1.73567 z"
         style="-inkscape-font-specification:'Orbitron, Normal';fill:#008080;stroke-width:0.5"
         id="path330" /></g></g><metadata
     id="metadata5115"><rdf:RDF><cc:Work
         rdf:about=""><dc:title>jawisoftbcd_logo</dc:title></cc:Work></rdf:RDF></metadata></svg>
